<?xml version="1.0" encoding="UTF-8" standalone="no"?>
<!-- Created with Inkscape (http://www.inkscape.org/) -->

<svg
   xmlns:dc="http://purl.org/dc/elements/1.1/"
   xmlns:cc="http://creativecommons.org/ns#"
   xmlns:rdf="http://www.w3.org/1999/02/22-rdf-syntax-ns#"
   xmlns:svg="http://www.w3.org/2000/svg"
   xmlns="http://www.w3.org/2000/svg"
   xmlns:sodipodi="http://sodipodi.sourceforge.net/DTD/sodipodi-0.dtd"
   xmlns:inkscape="http://www.inkscape.org/namespaces/inkscape"
   width="90.124458mm"
   height="56.444447mm"
   viewBox="0 0 319.33863 200.00001"
   id="svg2"
   version="1.1"
   inkscape:version="0.91 r13725"
   sodipodi:docname="logo-inverted.svg">
  <defs
     id="defs4" />
  <sodipodi:namedview
     id="base"
     pagecolor="#ffffff"
     bordercolor="#666666"
     borderopacity="1.0"
     inkscape:pageopacity="0.0"
     inkscape:pageshadow="2"
     inkscape:zoom="0.35"
     inkscape:cx="195.74452"
     inkscape:cy="288.05377"
     inkscape:document-units="mm"
     inkscape:current-layer="layer2"
     showgrid="false"
     inkscape:window-width="1366"
     inkscape:window-height="715"
     inkscape:window-x="-8"
     inkscape:window-y="-8"
     inkscape:window-maximized="1"
     fit-margin-top="0"
     fit-margin-left="0"
     fit-margin-right="0"
     fit-margin-bottom="0" />
  <metadata
     id="metadata7">
    <rdf:RDF>
      <cc:Work
         rdf:about="">
        <dc:format>image/svg+xml</dc:format>
        <dc:type
           rdf:resource="http://purl.org/dc/dcmitype/StillImage" />
        <dc:title></dc:title>
      </cc:Work>
    </rdf:RDF>
  </metadata>
  <g
     inkscape:label="Vrstva 1"
     inkscape:groupmode="layer"
     id="layer1"
     transform="translate(112.77313,-752.27104)">
    <rect
       style="fill:#000000;stroke:#000000;stroke-width:2.48779154;stroke-miterlimit:4;stroke-dasharray:none"
       id="rect4672"
       width="314.84482"
       height="194.58479"
       x="-109.5232"
       y="755.43933" />
  </g>
  <g
     inkscape:groupmode="layer"
     id="layer2"
     inkscape:label="Vrstva 2"
     style="display:inline"
     transform="translate(3.5433071,-365.52825)">
    <path
       d="m 105.68802,474.69557 c -0.35721,-1.94548 -1.05189,-3.52844 -1.40758,-5.59445 -1.58012,-9.16732 0.78351,-20.28791 8.8232,-24.91589 1.41385,-0.8152 3.17959,-1.6325 4.68625,-2.10207 2.32357,-0.72638 3.52996,-0.55252 6.21891,-0.95604 6.64957,-0.99704 15.07343,1.99161 19.17205,7.92619 1.98041,2.86755 3.36161,6.10067 3.89951,10.0556 0.25396,1.87507 0.0888,4.71472 0.0976,6.70766 0.0152,3.07311 -0.71613,4.1007 -0.76415,6.58542 -0.0537,0.0531 -0.12261,0.0801 -0.13761,0.18183 l -0.51057,0.86512 c -0.34392,0.73227 -0.32779,0.87803 -0.63489,1.63288 -0.48096,1.1821 -0.83931,1.65452 -1.50059,2.64928 -4.43438,6.664 -9.60481,7.84325 -16.78204,8.51421 -4.77564,0.44774 -9.73616,-0.70703 -13.23063,-2.72293 -3.28796,-1.89594 -5.2995,-4.32903 -7.15085,-7.57164 l -0.77857,-1.25517 z m -6.999761,54.14638 -0.0097,16.40604 -1.934096,-0.0286 -14.434744,-0.0769 c 0.50203,-6.02911 0.40352,-14.87585 0.384163,-21.25571 -0.0097,-2.69446 -0.675321,-4.36985 -0.362717,-7.11972 1.051891,-0.16096 10.881625,0.51322 16.06174,0.14368 l 0.295336,11.93123 z m -25.434047,28.9661 -4.899777,-0.13495 c 0.586494,0.54549 -0.899669,0.53316 1.507989,0.53316 0,1.30584 -0.101546,2.94954 -0.0484,4.19712 0.08674,1.99768 0.266296,1.86596 2.267773,1.88095 l 33.808553,-0.21789 c 1.28212,-0.78389 0.55081,-6.34323 0.55081,-8.12359 0,-5.57016 0,-11.14317 0,-16.71485 l 0,-28.91789 c 4.78362,3.20236 4.60767,3.97828 11.73707,6.36487 9.80335,3.28189 22.4082,3.7619 31.95759,0.37239 4.00352,-1.41992 8.75582,-4.01149 11.95819,-6.51937 11.22156,-8.78695 17.53974,-20.75216 20.36211,-34.69778 0.47831,-2.36571 2.06601,-14.78645 0.9141,-16.66968 0.001,-10.92509 -3.80974,-20.79943 -7.9353,-27.65494 -5.34525,-8.88337 -14.13828,-16.46089 -24.06538,-20.05767 -6.31742,-2.28827 -16.22744,-4.21592 -23.28243,-3.19211 -8.44227,1.22613 -15.4612,4.01054 -21.76477,9.15934 -0.82754,0.67532 -1.77979,1.50913 -2.52021,2.00527 l 0,-8.67458 -33.939706,0 0,24.60555 2.824087,0.17044 -0.05903,4.5792 -2.765057,0.071 0,18.53602 c 1.463956,0.55688 4.055153,0.73017 5.908583,0.34981 2.366848,-7.68686 15.002446,-6.29655 15.162071,2.24025 0.07118,3.76835 -2.307443,7.04759 -5.750286,8.06721 -3.457839,1.02494 -7.987499,-0.58383 -9.400966,-4.76368 1.548985,0.008 3.094175,0.0505 4.641643,0.0974 1.867476,0.0571 3.378122,0.54512 4.459624,-0.73226 -0.773072,-1.53114 1.113196,-0.0258 -1.051891,-1.05607 -0.722583,0.94143 -11.58959,0.61763 -13.592019,0.51437 l 0,18.59942 c 1.284781,0 1.348174,-0.15166 2.262269,0.28148 1.492044,-0.79851 6.032902,-0.6349 7.873048,0.1152 2.564626,1.0443 2.828261,2.69749 2.806815,6.01336 -0.02257,3.57153 -0.121665,4.77507 -2.8015,5.95072 -1.287059,0.56428 -6.649955,1.06403 -7.602388,0.46255 -2.230003,0 -2.931138,-0.54113 -3.006867,1.88095 -0.08237,2.59385 0.459892,2.21406 2.73203,2.30706 1.541963,-0.77478 5.803052,-0.6719 7.738478,0.0974 2.694828,1.07068 2.990733,2.41582 2.95429,5.89795 -0.07383,7.06905 -4.864851,7.56026 -10.692768,6.5896 l -2.638456,0.23137 -0.0018,13.54381 c -2.37482,0 -1.262194,-0.0296 -1.885695,0.60263 2.585692,-0.48438 8.948473,-0.5214 11.625082,-0.23954 l -0.08294,31.90881 -6.264654,0.14027 z m 78.204728,-126.9901 c -0.24485,-1.48768 -0.33747,-1.02874 -2.9355,-2.98543 -2.10264,-1.58296 -5.15582,-2.77682 -6.74144,-4.15365 -4.31234,-3.73875 0.18012,-7.74911 1.23903,-11.22327 0.97768,0.0323 0.8285,0.10819 1.70178,0.22226 0.0323,0.006 0.81521,0.33842 1.69362,-0.0463 l 6.94168,2.91348 c 6.07163,2.74607 6.76308,3.77367 11.1297,7.29301 2.14079,1.72588 2.80036,2.54203 4.45753,4.87757 0.81616,0.31963 0.31413,0.12337 0.98565,0.96743 9.96089,12.53063 12.57581,30.35166 9.74736,45.97059 -0.77744,4.29772 -3.01294,12.38202 -4.88896,15.14157 -1.40056,4.41616 -5.8226,10.15316 -9.09064,13.39462 l -3.79303,3.73837 c -4.02326,3.00687 -12.82806,9.10753 -20.53541,8.96726 -0.1581,-1.78035 -0.81236,-4.77128 -0.0731,-6.18683 -0.20708,-6.08396 6.18892,-8.75146 12.07871,-13.93062 14.95974,-13.15623 17.81723,-40.44921 5.41301,-57.37551 -0.44813,-0.63603 -1.0331,-1.40739 -1.62851,-2.18919 -0.74574,-0.98148 -1.01963,-1.04658 -1.80731,-1.95517 -1.27454,-1.47325 -2.04988,-2.65459 -3.8942,-3.44018"
       style="fill:none;fill-opacity:1;fill-rule:evenodd;stroke:#ffffff;stroke-width:2.48779154;stroke-miterlimit:4;stroke-dasharray:none"
       id="path3363"
       inkscape:connector-curvature="0" />
    <path
       d="m 262.34266,404.47721 c 10.07192,0 14.43531,-1.1857 16.16176,12.20683 2.03318,15.77817 -4.46399,37.52358 6.78187,47.4522 1.53874,1.35899 4.77603,3.69357 7.50977,3.75374 -0.71025,0.97008 -1.86596,1.14774 -3.20977,1.79763 -1.84774,0.89359 -1.75511,1.04107 -3.23425,2.18862 -7.92069,6.14375 -7.74,15.7573 -7.74,24.79973 0,7.07947 0.0996,14.22501 0.0171,21.29405 -0.18563,15.85998 -7.98371,13.75031 -16.28609,13.75031 l 0,12.93302 c 12.23321,0 20.5113,1.55449 27.20321,-9.09102 7.01209,-11.15475 1.52469,-34.9823 4.10734,-47.20583 1.47838,-6.99919 5.85088,-13.37356 13.74272,-13.37356 l 0,-13.76701 c -3.94374,0 -7.25201,-1.63345 -9.47727,-4.28918 -10.81594,-12.91423 0.55632,-36.84028 -8.31946,-54.67631 -6.06802,-12.1943 -14.58431,-10.2881 -27.25654,-10.2881 l 0,12.51488 z"
       style="fill:none;fill-opacity:1;fill-rule:evenodd;stroke:#ffffff;stroke-width:2.48779154;stroke-miterlimit:4;stroke-dasharray:none"
       id="path3365"
       inkscape:connector-curvature="0" />
    <path
       d="m -2.2994113,461.62741 0,13.76759 c 4.1971271,0 6.8399502,1.54519 9.2438101,4.52207 10.6749292,13.22038 -0.1463373,40.05973 8.6030332,55.22503 6.414408,11.11887 14.400201,9.50592 26.788294,9.50592 l 0,-12.93245 c -8.994216,0 -12.27459,1.45257 -14.969422,-6.30622 -2.725767,-7.84666 -0.284706,-35.69045 -1.614657,-41.35647 -1.57537,-6.71676 -6.235804,-14.73273 -13.451184,-15.33327 l 0,-0.83495 c 2.307634,-0.19151 5.566938,-2.53292 6.996918,-3.84959 7.904745,-7.2746 6.768959,-16.44248 6.768959,-25.77095 0,-7.68552 -0.870058,-24.94757 2.732033,-30.22563 3.053368,-4.47367 6.827041,-3.56603 13.537353,-3.56603 l 0,-12.51507 c -11.429776,0 -21.706116,-1.80883 -27.535549,10.00834 -4.161254,8.43202 -2.916711,12.29774 -2.916711,22.53252 0,10.16549 2.5874,37.12916 -14.1828773,37.12916"
       style="fill:none;fill-opacity:1;fill-rule:evenodd;stroke:#ffffff;stroke-width:2.48779154;stroke-miterlimit:4;stroke-dasharray:none"
       id="path3367"
       inkscape:connector-curvature="0" />
    <path
       d="m 198.83256,422.51347 c 2.26625,-0.48096 4.99449,-0.42383 6.69361,0.75865 1.94757,1.35633 1.75606,2.64396 1.71145,5.58041 -0.0839,5.62444 -3.03552,6.33412 -8.40506,6.1781 l -1.8819,0.27332 -0.004,64.44359 0,19.61335 34.69456,0 -0.001,-27.15538 0.001,-11.33943 c -13.64384,-1.58011 -12.54298,6.08359 -12.44675,-25.99567 0.0194,-6.40852 0.0258,-12.82502 0.0114,-19.23449 -0.008,-3.06666 -0.22435,-5.93706 2.99794,-6.37987 2.33971,-0.32171 7.40481,0.4115 9.17055,-0.40845 0.79736,-2.90571 0.268,-11.17032 0.26743,-14.70788 l -34.69513,0 7e-4,8.29688 1.8857,0.0769 z m 0.1991,77.23407 -0.10173,-1.88892 7.20683,-0.14748 0,-8.22152 16.11925,-0.0133 0.0226,8.30125 7.23872,0.28945 0.0812,18.94125 -30.71856,-0.0507 0.15166,-17.20986 z"
       style="fill:none;fill-opacity:1;fill-rule:evenodd;stroke:#ffffff;stroke-width:2.48779154;stroke-miterlimit:4;stroke-dasharray:none"
       id="path3385"
       inkscape:connector-curvature="0" />
    <path
       d="m 199.03166,499.74754 -0.15165,17.20987 30.71855,0.0507 -0.0803,-18.94124 -7.23968,-0.28946 -0.0226,-8.30124 -16.11925,0.0133 0,8.22153 -7.20684,0.14748 0.10174,1.88892 z"
       style="fill:none;fill-opacity:1;fill-rule:evenodd;stroke:#ffffff;stroke-width:1.24389577;stroke-miterlimit:4;stroke-dasharray:none"
       id="path3393"
       inkscape:connector-curvature="0" />
    <path
       d="m 223.53434,433.25312 c -0.91941,-0.55536 -0.0854,0.108 -0.83931,-0.69734 0.4709,-0.33044 2.90912,-0.23137 3.55635,0.0613 0.86854,0.39327 1.3774,1.05132 1.73841,2.32433 1.74429,6.16084 -6.36316,6.21854 -6.79155,3.16669 -0.30388,-2.15427 -0.22966,-0.11996 0.44186,-1.0965 1.30243,-1.89652 -0.45742,1.03842 0.47603,-0.64343 0.39612,-0.71556 0.49026,-2.15522 1.92024,-2.18331 1.25517,-0.0247 1.09915,0.36974 1.64958,0.78332 l 0.59409,0.59883 c -0.48913,-1.79915 0.0715,-1.1523 -1.6437,-1.84812 -0.89473,-0.36252 -0.49709,-0.10003 -1.102,-0.46578 z m 8.10708,47.61296 2.63902,0.0313 0,-5.44812 -4.78893,-0.0194 0.0214,-40.12692 4.76748,0.0419 0,-6.49735 -2.90589,0 c -1.76688,0.81994 -6.83141,0.0867 -9.17111,0.40845 -3.2223,0.44281 -3.00497,3.31321 -2.99795,6.37987 0.0152,6.40947 0.009,12.82597 -0.0114,19.23449 -0.0957,32.07926 -1.19709,24.41499 12.44674,25.99567"
       style="fill:none;fill-opacity:1;fill-rule:evenodd;stroke:#ffffff;stroke-width:1.24389577;stroke-miterlimit:4;stroke-dasharray:none"
       id="path3395"
       inkscape:connector-curvature="0" />
    <path
       d="m 68.354435,557.6731 4.899777,0.13495 6.264655,-0.13932 0.08294,-31.90976 c -2.676609,-0.28186 -9.03939,-0.24484 -11.625083,0.23954 l 0.377707,31.67459 z"
       style="fill:none;fill-opacity:1;fill-rule:evenodd;stroke:#ffffff;stroke-width:1.24389577;stroke-miterlimit:4;stroke-dasharray:none"
       id="path3397"
       inkscape:connector-curvature="0" />
    <path
       d="m 209.64642,379.35311 c 2.48453,-1.0088 1.23904,1.17925 4.2628,1.17394 2.72064,-0.004 2.36134,-2.08746 4.15783,-1.08568 0.96249,1.61675 -0.42288,2.51471 0.81179,4.39888 1.06859,1.63175 1.76745,0.60643 2.95923,2.39153 -1.12933,1.68773 -1.71412,0.77687 -2.8425,2.08214 -1.26162,1.45921 -0.39916,2.92411 -0.84349,4.70618 -2.48414,0.81027 -0.58383,-0.57947 -3.46865,-1.07239 -3.62202,-0.61971 -2.55514,1.68033 -4.91648,1.07391 -0.84045,-1.6678 0.57453,-2.498 -0.74688,-4.45696 -1.04961,-1.55716 -2.95315,-0.94902 -3.01712,-2.35395 -0.0501,-1.09213 1.7684,-1.26694 2.63884,-2.24404 1.4501,-1.62757 0.0894,-2.73792 1.00463,-4.61356 z m -8.35496,21.39503 c 13.55861,10.49537 28.27199,2.16566 31.1031,-9.9905 -2.40329,-0.0539 -4.14759,-0.91789 -4.14759,-3.39653 0,-2.64168 1.49091,-3.3487 4.05781,-3.39236 1.64427,-10e-4 -1.46452,-6.12211 -1.79535,-7.5426 -1.61902,0.13514 -3.57305,2.82466 -5.9399,0.283 -0.56277,-0.60358 -1.03936,-1.99711 -0.71556,-3.13005 0.26098,-0.91314 0.94484,-1.28269 1.75284,-2.81023 -2.36344,-1.25043 -4.64412,-3.12151 -7.91918,-3.39388 0,1.6437 0.27503,2.62499 -0.44546,3.70326 -1.22234,1.82933 -5.96496,3.0528 -5.96496,-2.95163 0,-1.89538 0.10098,-0.72904 -0.37733,-1.12991 -2.41677,1.16065 -11.7494,2.17857 -15.13777,13.14731 -0.58536,1.89595 -1.62814,6.21037 -0.70057,8.45726 0,3.64347 4.06635,10.96173 6.22992,12.14686"
       style="fill:none;fill-opacity:1;fill-rule:evenodd;stroke:#ffffff;stroke-width:2.48779154;stroke-miterlimit:4;stroke-dasharray:none"
       id="path3399"
       inkscape:connector-curvature="0" />
    <path
       d="m 91.265614,536.31831 6.285343,-0.004 0.0028,6.38422 -6.205056,-10e-4 -0.08294,-6.37835 z m -7.315407,0.53107 1.748471,-0.15279 3.864207,0.0214 0.01766,1.50001 -0.0042,4.19827 -3.875409,-0.004 -1.757199,-0.0985 0.0065,-5.46463 z m 7.642057,-7.80738 5.654058,-0.004 -0.147858,5.71327 -5.419647,-0.004 -0.08921,-1.43112 0.0028,-4.27361 z m -7.974591,-7.74759 6.28629,-0.0457 -0.05068,6.39657 -6.247,-0.17367 0.01137,-6.17716 z m 13.126808,23.92492 1.934096,0.0286 0.0097,-16.40604 -0.295336,-11.93124 c -5.180115,0.36955 -15.009849,-0.30463 -16.06174,-0.14368 -0.312604,2.74987 0.353604,4.42526 0.362717,7.11972 0.01934,6.37986 0.117867,15.22603 -0.384163,21.25571 l 14.434744,0.0769 z"
       style="fill:none;fill-opacity:1;fill-rule:evenodd;stroke:#ffffff;stroke-width:0.35105506"
       id="path3401"
       inkscape:connector-curvature="0" />
    <path
       d="m 146.60642,416.0277 c 5.47014,-2.42986 8.22799,5.2866 3.6596,7.59252 -5.36194,2.70621 -8.7655,-5.32475 -3.6596,-7.59252 z m 5.70303,90.00025 c 1.25896,6.81262 -6.59662,8.18831 -8.17313,2.39589 l 0.1099,-1.88304 c 0.8915,-1.27795 1.68982,-2.61056 3.69775,-2.86888 2.56747,-0.33026 3.5962,1.13313 4.36548,2.35603 z m -11.01221,3.68067 c -0.73929,1.41555 -0.085,4.40648 0.0731,6.18683 7.70735,0.14027 16.51215,-5.96039 20.53541,-8.96726 l 3.79303,-3.73837 c 3.26804,-3.24146 7.69008,-8.97846 9.09064,-13.39462 1.87602,-2.75955 4.11152,-10.84385 4.88896,-15.14157 2.82845,-15.61893 0.21353,-33.43996 -9.74736,-45.97059 -0.67152,-0.84406 -0.16949,-0.6478 -0.98565,-0.96743 -1.65717,-2.33554 -2.31674,-3.15169 -4.45753,-4.87757 -4.36662,-3.51934 -5.05807,-4.54694 -11.1297,-7.29301 l -6.94168,-2.91348 c -0.87841,0.38473 -1.66135,0.0516 -1.69362,0.0463 -0.87328,-0.11407 -0.7241,-0.19 -1.70178,-0.22226 -1.05891,3.47416 -5.55137,7.48452 -1.23903,11.22327 1.58562,1.37683 4.6388,2.57069 6.74144,4.15365 2.59803,1.95669 2.69065,1.49775 2.9355,2.98543 1.84432,0.78559 2.61966,1.96693 3.8942,3.44018 0.78768,0.90859 1.06157,0.97369 1.80731,1.95517 0.59541,0.7818 1.18038,1.55316 1.62851,2.18919 12.40422,16.9263 9.54673,44.21928 -5.41301,57.37551 -5.88979,5.17916 -12.28579,7.84666 -12.07871,13.93062"
       style="fill:none;fill-opacity:1;fill-rule:evenodd;stroke:#ffffff;stroke-width:0.35105506"
       id="path3403"
       inkscape:connector-curvature="0" />
    <path
       d="m 70.239183,463.42504 c 2.002429,0.10326 12.869436,0.42706 13.592019,-0.51437 2.165087,1.03026 0.278819,-0.47621 1.051891,1.05607 l 0.03701,-4.46228 c -2.744938,-0.81577 -6.06555,-0.25718 -9.147961,-0.4466 -1.854567,0.38036 -4.445764,0.20707 -5.90972,-0.34981 -4.072235,-1.28858 -7.043224,-3.97544 -7.181013,-9.10279 -0.08123,-3.00535 -0.02738,-5.27634 1.414611,-6.91302 1.545172,-1.7536 2.595357,-2.55077 5.766402,-2.52021 l 2.765057,-0.0716 0.05903,-4.57863 -2.824087,-0.17044 c -3.43639,-0.324 -7.754988,1.93998 -9.325995,3.78127 -2.720255,3.18831 -2.709057,4.83201 -2.746268,10.46348 -0.0323,4.74262 1.263341,7.10397 3.674774,9.5251 1.87832,1.88589 5.310904,4.4786 8.774248,4.30379"
       style="fill:none;fill-opacity:1;fill-rule:evenodd;stroke:#ffffff;stroke-width:1.24389577;stroke-miterlimit:4;stroke-dasharray:none"
       id="path3405"
       inkscape:connector-curvature="0" />
    <path
       d="m 234.92445,451.51355 -0.12224,-8.55995 m -0.52177,32.49568 c 1.23525,0.29268 0.79737,-1.40264 0.77212,-2.83263 -0.0228,-1.26712 -0.009,-2.52609 -0.0463,-3.79151 l 0.0317,-9.80544 -0.004,-7.16603 c 2.2877,0 8.28891,0.96421 8.28891,-4.903 0,-5.81121 -5.93876,-4.90244 -8.28891,-4.90244 l 0.009,-5.6698 c -0.24276,-1.16274 0.25491,-0.74726 -0.76453,-1.03348 l -4.76748,-0.0419 -0.0214,40.12692 4.78893,0.0194 z"
       style="fill:none;fill-opacity:1;fill-rule:evenodd;stroke:#ffffff;stroke-width:1.24389577;stroke-miterlimit:4;stroke-dasharray:none"
       id="path3407"
       inkscape:connector-curvature="0" />
    <path
       d="m 75.772144,459.05786 c 3.082411,0.18942 6.403023,-0.36917 9.147961,0.4466 l -0.03701,4.46228 c -1.081502,1.27738 -2.592148,0.7894 -4.459624,0.73226 -1.547468,-0.0469 -3.092658,-0.0888 -4.641643,-0.0974 1.413467,4.17985 5.943127,5.78862 9.400966,4.76368 3.442843,-1.01962 5.821462,-4.29886 5.750286,-8.06721 -0.159625,-8.5368 -12.79636,-9.92711 -15.160934,-2.24025"
       style="fill:none;fill-opacity:1;fill-rule:evenodd;stroke:#ffffff;stroke-width:0.35105506"
       id="path3409"
       inkscape:connector-curvature="0" />
    <path
       d="m 72.50259,482.30594 c 0,3.21356 -0.496715,9.81948 0.274837,12.54183 0.952433,0.60148 6.315329,0.10173 7.602388,-0.46255 2.679835,-1.17565 2.778913,-2.38033 2.8015,-5.95072 0.02145,-3.31587 -0.242189,-4.96906 -2.806815,-6.01336 -1.840146,-0.7501 -6.381004,-0.91371 -7.87191,-0.1152"
       style="fill:#ffffff;fill-opacity:1;fill-rule:evenodd;stroke:#ffffff;stroke-width:0.35105506"
       id="path3411"
       inkscape:connector-curvature="0" />
    <path
       d="m 72.50259,499.03578 0,12.58492 c 5.827917,0.97066 10.618937,0.47945 10.692768,-6.59074 0.03644,-3.48099 -0.259462,-4.82613 -2.95429,-5.89681 -1.935426,-0.76927 -6.196515,-0.87215 -7.738478,-0.0974"
       style="fill:#ffffff;fill-opacity:1;fill-rule:evenodd;stroke:#ffffff;stroke-width:0.35105506"
       id="path3413"
       inkscape:connector-curvature="0" />
    <path
       d="m 198.83256,435.03063 c 5.36954,0.15602 8.32117,-0.55366 8.40506,-6.1781 0.0446,-2.93645 0.23612,-4.22408 -1.71145,-5.58041 -1.69912,-1.18248 -4.42736,-1.23961 -6.69361,-0.75865 l 0,12.51716 z"
       style="fill:#ffffff;fill-opacity:1;fill-rule:evenodd;stroke:#ffffff;stroke-width:0.35105506"
       id="path3415"
       inkscape:connector-curvature="0" />
    <path
       d="m 212.49081,383.09566 c 4.79501,-2.08538 6.59739,4.70655 3.03079,6.30508 -3.09684,1.38708 -5.9306,-1.23429 -4.90244,-4.5141 0.4654,-1.48331 0.80382,-1.32615 1.87165,-1.79098 z m -6.48786,3.11448 c 0.0649,1.4055 1.96637,0.79736 3.01712,2.35452 1.32141,1.95896 -0.0936,2.7901 0.74688,4.45696 2.36134,0.60642 1.29446,-1.69362 4.91648,-1.07391 2.88482,0.49292 0.98451,1.88266 3.46865,1.07239 0.44433,-1.78149 -0.41813,-3.24697 0.84349,-4.70618 1.12838,-1.30527 1.71317,-0.39441 2.8425,-2.08214 -1.19178,-1.7851 -1.89064,-0.75978 -2.95923,-2.39153 -1.23467,-1.88417 0.1507,-2.78213 -0.81179,-4.39888 -1.79649,-1.00178 -1.43719,1.08093 -4.15783,1.08568 -3.02376,0.006 -1.77827,-2.18274 -4.2628,-1.17394 -0.91523,1.87564 0.44547,2.98599 -1.00463,4.61356 -0.87044,0.97767 -2.68894,1.15191 -2.63884,2.24347"
       style="fill:none;fill-opacity:1;fill-rule:evenodd;stroke:#ffffff;stroke-width:0.35105506"
       id="path3417"
       inkscape:connector-curvature="0" />
    <path
       d="m 235.00625,468.82457 c 2.22583,0 7.95296,0.81084 7.97896,-4.89863 0.0258,-5.7203 -5.20441,-4.90681 -7.94783,-4.90681 l -0.0311,9.80544 z"
       style="fill:none;fill-opacity:1;fill-rule:evenodd;stroke:#ffffff;stroke-width:1.24389577;stroke-miterlimit:4;stroke-dasharray:none"
       id="path3419"
       inkscape:connector-curvature="0" />
    <path
       d="m 242.37765,444.68764 c -1.54842,-2.23114 -4.32562,-1.86425 -7.57544,-1.73404 l 0.12224,8.55995 c 2.87248,0.15393 5.13266,0.0437 6.4461,-1.04108 0.96402,-0.79774 1.68622,-2.27688 1.49623,-4.4133 -0.0414,-0.46654 -0.16741,-0.90822 -0.48913,-1.37153"
       style="fill:none;fill-opacity:1;fill-rule:evenodd;stroke:#ffffff;stroke-width:0.35105506"
       id="path3421"
       inkscape:connector-curvature="0" />
    <path
       d="m 146.60642,416.0277 c -5.1059,2.26777 -1.70234,10.29873 3.6596,7.59252 4.56839,-2.30592 1.81054,-10.02238 -3.6596,-7.59252"
       style="fill:none;fill-opacity:1;fill-rule:evenodd;stroke:#ffffff;stroke-width:1.24389577;stroke-miterlimit:4;stroke-dasharray:none"
       id="path3423"
       inkscape:connector-curvature="0" />
    <path
       d="m 144.24622,506.5408 -0.1099,1.88304 c 1.57651,5.79242 9.43209,4.41673 8.17313,-2.39589 -0.76928,-1.2229 -1.79801,-2.68629 -4.36548,-2.35603 -2.00793,0.25832 -2.80587,1.59093 -3.69775,2.86888"
       style="fill:none;fill-opacity:1;fill-rule:evenodd;stroke:#ffffff;stroke-width:1.24389577;stroke-miterlimit:4;stroke-dasharray:none"
       id="path3425"
       inkscape:connector-curvature="0" />
    <path
       d="m 91.348558,542.69666 6.205056,0.001 -0.0028,-6.38423 -6.285343,0.004 0.08294,6.37834 z"
       style="fill:none;fill-opacity:1;fill-rule:evenodd;stroke:#ffffff;stroke-width:1.24389577;stroke-miterlimit:4;stroke-dasharray:none"
       id="path3427"
       inkscape:connector-curvature="0" />
    <path
       d="m 212.49081,383.09566 c -1.06783,0.46483 -1.40625,0.30767 -1.87165,1.79098 -1.02816,3.27981 1.8056,5.90118 4.90244,4.5141 3.5666,-1.59853 1.76422,-8.39046 -3.03079,-6.30508"
       style="fill:none;fill-opacity:1;fill-rule:evenodd;stroke:#ffffff;stroke-width:1.24389577;stroke-miterlimit:4;stroke-dasharray:none"
       id="path3429"
       inkscape:connector-curvature="0" />
    <path
       d="m 83.606285,527.47157 6.247,0.17367 0.05068,-6.39657 -6.28629,0.0457 -0.01137,6.17716 z"
       style="fill:none;fill-opacity:1;fill-rule:evenodd;stroke:#ffffff;stroke-width:1.24389577;stroke-miterlimit:4;stroke-dasharray:none"
       id="path3431"
       inkscape:connector-curvature="0" />
    <path
       d="m 83.943754,542.31401 1.757199,0.0985 3.875409,0.004 0.0042,-4.19826 -0.01766,-1.50002 -3.864207,-0.0214 -1.748472,0.15279 -0.0065,5.46463 z"
       style="fill:none;fill-opacity:1;fill-rule:evenodd;stroke:#ffffff;stroke-width:1.24389577;stroke-miterlimit:4;stroke-dasharray:none"
       id="path3433"
       inkscape:connector-curvature="0" />
    <path
       d="m 91.589607,533.31562 0.08921,1.43112 5.419647,0.004 0.147858,-5.71327 -5.654058,0.004 -0.0028,4.27361 z"
       style="fill:none;fill-opacity:1;fill-rule:evenodd;stroke:#ffffff;stroke-width:1.24389577;stroke-miterlimit:4;stroke-dasharray:none"
       id="path3435"
       inkscape:connector-curvature="0" />
    <path
       d="m 224.51676,431.91121 c 2.30991,0 4.18384,1.87336 4.18384,4.18365 0,2.30972 -1.87393,4.18365 -4.18384,4.18365 -2.31009,0 -4.18364,-1.87393 -4.18364,-4.18365 0,-2.31029 1.87355,-4.18365 4.18364,-4.18365"
       style="fill:none;fill-opacity:1;fill-rule:evenodd;stroke:#ffffff;stroke-width:1.24389577;stroke-miterlimit:4;stroke-dasharray:none"
       id="path3437"
       inkscape:connector-curvature="0" />
  </g>
</svg>
