<?xml version="1.0" encoding="UTF-8" standalone="no"?>
<!-- Created with Inkscape (http://www.inkscape.org/) -->
<svg id="svg2" xmlns:rdf="http://www.w3.org/1999/02/22-rdf-syntax-ns#" xmlns="http://www.w3.org/2000/svg" height="56.444mm" width="88.105mm" version="1.1" xmlns:cc="http://creativecommons.org/ns#" xmlns:dc="http://purl.org/dc/elements/1.1/" viewBox="0 0 312.18351 199.99999">
 <metadata id="metadata7">
  <rdf:RDF>
   <cc:Work rdf:about="">
    <dc:format>image/svg+xml</dc:format>
    <dc:type rdf:resource="http://purl.org/dc/dcmitype/StillImage"/>
    <dc:title/>
   </cc:Work>
  </rdf:RDF>
 </metadata>
 <g id="layer1" transform="translate(112.77 -752.27)">
  <g fill="none">
   <g stroke="#000">
    <g>
     <g stroke-width="2.4878">
      <path id="path3363" d="m-3.5418 861.44c-0.35721-1.9455-1.0519-3.5284-1.4076-5.5945-1.5801-9.1673 0.78351-20.288 8.8232-24.916 1.4138-0.81521 3.1796-1.6325 4.6862-2.1021 2.3236-0.72638 3.53-0.55252 6.2189-0.95605 6.6496-0.99703 15.073 1.9916 19.172 7.9262 1.9804 2.8676 3.3616 6.1007 3.8995 10.056 0.25396 1.8751 0.08883 4.7147 0.09756 6.7076 0.0152 3.0731-0.71613 4.1007-0.76415 6.5854-0.05371 0.0531-0.12261 0.0801-0.13761 0.18183l-0.51057 0.86513c-0.34392 0.73226-0.32779 0.87803-0.63489 1.6329-0.48096 1.1821-0.83931 1.6545-1.5006 2.6493-4.4344 6.664-9.6048 7.8432-16.782 8.5142-4.7756 0.44775-9.7362-0.70702-13.231-2.7229-3.288-1.896-5.2995-4.329-7.1508-7.5716l-0.77857-1.2552zm-6.9998 54.146-0.0097 16.406-1.9341-0.0286-14.435-0.0769c0.50203-6.0291 0.40352-14.876 0.38416-21.256-0.0097-2.6944-0.67532-4.3698-0.36272-7.1197 1.0519-0.16095 10.882 0.51323 16.062 0.14368l0.29534 11.931zm-25.434 28.966-4.8998-0.13495c0.58649 0.5455-0.89967 0.53316 1.508 0.53316 0 1.3058-0.10155 2.9495-0.0484 4.1971 0.08674 1.9977 0.2663 1.866 2.2678 1.881l33.809-0.2179c1.2821-0.78389 0.55081-6.3432 0.55081-8.1236v-16.715-28.918c4.7836 3.2024 4.6077 3.9783 11.737 6.3649 9.8033 3.2819 22.408 3.7619 31.958 0.37239 4.0035-1.4199 8.7558-4.0115 11.958-6.5194 11.222-8.7869 17.54-20.752 20.362-34.698 0.4783-2.3657 2.066-14.786 0.91409-16.67 0.0011-10.925-3.8097-20.799-7.9353-27.655-5.3452-8.8834-14.138-16.461-24.065-20.058-6.3174-2.2883-16.227-4.2159-23.282-3.1921-8.4423 1.2261-15.461 4.0106-21.765 9.1594-0.82755 0.67532-1.7798 1.5091-2.5202 2.0053v-8.6746h-33.94v24.606l2.8241 0.17045-0.05903 4.5792-2.7651 0.071v18.536c1.464 0.55688 4.0552 0.73017 5.9086 0.34981 2.3668-7.6868 15.002-6.2965 15.162 2.2402 0.07118 3.7684-2.3074 7.0476-5.7503 8.0672-3.4578 1.0249-7.9875-0.58384-9.401-4.7637 1.549 0.008 3.0942 0.0505 4.6416 0.0974 1.8675 0.0571 3.3781 0.54511 4.4596-0.73226-0.77307-1.5312 1.1132-0.0258-1.0519-1.0561-0.72258 0.94143-11.59 0.61762-13.592 0.51437v18.599c1.2848 0 1.3482-0.15165 2.2623 0.28148 1.492-0.79851 6.0329-0.63489 7.873 0.11521 2.5646 1.0443 2.8283 2.6975 2.8068 6.0134-0.02257 3.5715-0.12166 4.7751-2.8015 5.9507-1.2871 0.56429-6.65 1.064-7.6024 0.46255-2.23 0-2.9311-0.54113-3.0069 1.881-0.08237 2.5939 0.45989 2.2141 2.732 2.3071 1.542-0.77478 5.8031-0.67191 7.7385 0.0974 2.6948 1.0707 2.9907 2.4158 2.9543 5.898-0.07383 7.069-4.8649 7.5602-10.693 6.5896l-2.6385 0.23137-0.0018 13.544c-2.3748 0-1.2622-0.0296-1.8857 0.60263 2.5857-0.48438 8.9485-0.52139 11.625-0.23953l-0.08294 31.909-6.2647 0.14026zm78.205-126.99c-0.24485-1.4877-0.33747-1.0287-2.9355-2.9854-2.1026-1.583-5.1558-2.7768-6.7414-4.1537-4.3123-3.7388 0.18012-7.7491 1.239-11.223 0.97768 0.0323 0.82849 0.10819 1.7018 0.22226 0.03226 0.006 0.81521 0.33842 1.6936-0.0463l6.9417 2.9135c6.0716 2.7461 6.7631 3.7737 11.13 7.293 2.1408 1.7259 2.8004 2.542 4.4575 4.8776 0.81615 0.31963 0.31412 0.12337 0.98565 0.96743 9.9609 12.531 12.576 30.352 9.7474 45.971-0.77744 4.2977-3.0129 12.382-4.889 15.142-1.4006 4.4162-5.8226 10.153-9.0906 13.395l-3.793 3.7384c-4.0233 3.0069-12.828 9.1075-20.535 8.9673-0.1581-1.7804-0.81236-4.7713-0.07307-6.1868-0.20708-6.084 6.1889-8.7514 12.079-13.931 14.96-13.156 17.817-40.449 5.413-57.376-0.44812-0.63604-1.0331-1.4074-1.6285-2.1892-0.74574-0.98147-1.0196-1.0466-1.8073-1.9552-1.2745-1.4733-2.0499-2.6546-3.8942-3.4402"/>
      <path id="path3365" d="m153.11 791.22c10.072 0 14.435-1.1857 16.162 12.207 2.0332 15.778-4.464 37.524 6.7819 47.452 1.5387 1.359 4.776 3.6936 7.5098 3.7537-0.71025 0.97009-1.866 1.1478-3.2098 1.7976-1.8477 0.8936-1.7551 1.0411-3.2342 2.1886-7.9207 6.1438-7.74 15.757-7.74 24.8 0 7.0795 0.0996 14.225 0.0171 21.294-0.18563 15.86-7.9837 13.75-16.286 13.75v12.933c12.233 0 20.511 1.5545 27.203-9.091 7.0121-11.155 1.5247-34.982 4.1073-47.206 1.4784-6.9992 5.8509-13.374 13.743-13.374v-13.767c-3.9437 0-7.252-1.6334-9.4773-4.2892-10.816-12.914 0.55632-36.84-8.3195-54.676-6.068-12.194-14.584-10.288-27.257-10.288v12.515z"/>
      <path id="path3367" d="m-111.53 848.37v13.768c4.1971 0 6.84 1.5452 9.2438 4.5221 10.675 13.22-0.14634 40.06 8.603 55.225 6.4144 11.119 14.4 9.5059 26.788 9.5059v-12.932c-8.9942 0-12.275 1.4526-14.969-6.3062-2.7258-7.8467-0.28471-35.69-1.6147-41.356-1.5754-6.7168-6.2358-14.733-13.451-15.333v-0.83494c2.3076-0.19151 5.5669-2.5329 6.9969-3.8496 7.9047-7.2746 6.769-16.442 6.769-25.771 0-7.6855-0.87006-24.948 2.732-30.226 3.0534-4.4737 6.827-3.566 13.537-3.566v-12.515c-11.43 0-21.706-1.8088-27.536 10.008-4.1613 8.432-2.9167 12.298-2.9167 22.533 0 10.166 2.5874 37.129-14.183 37.129"/>
      <path id="path3385" d="m89.603 809.26c2.2663-0.48096 4.9945-0.42383 6.6936 0.75864 1.9476 1.3563 1.7561 2.644 1.7115 5.5804-0.08389 5.6244-3.0355 6.3341-8.4051 6.1781l-1.8819 0.27331-0.0038 64.444v19.613h34.695l-0.001-27.155 0.001-11.339c-13.644-1.5801-12.543 6.0836-12.447-25.996 0.0194-6.4085 0.0258-12.825 0.0114-19.234-0.008-3.0667-0.22435-5.937 2.9979-6.3799 2.3397-0.32172 7.4048 0.41149 9.1706-0.40846 0.79736-2.9057 0.268-11.17 0.26743-14.708h-34.695l0.000702 8.2969 1.8857 0.0769zm0.1991 77.234-0.10174-1.8889 7.2068-0.14748v-8.2215l16.119-0.0133 0.0226 8.3012 7.2387 0.28945 0.0812 18.941-30.719-0.0507 0.15166-17.21z"/>
     </g>
     <g stroke-width="1.2439">
      <path id="path3393" d="m89.802 886.49-0.15166 17.21 30.719 0.0507-0.0803-18.941-7.2397-0.28945-0.0226-8.3012-16.119 0.0133v8.2215l-7.2068 0.14748 0.10174 1.8889z"/>
      <path id="path3395" d="m114.3 820c-0.91941-0.55537-0.0854 0.108-0.83931-0.69734 0.4709-0.33045 2.9091-0.23137 3.5564 0.0613 0.86854 0.39327 1.3774 1.0513 1.7384 2.3243 1.7443 6.1608-6.3632 6.2185-6.7916 3.1667-0.30388-2.1543-0.22966-0.11996 0.44186-1.0965 1.3024-1.8965-0.45742 1.0384 0.47603-0.64344 0.39612-0.71556 0.49026-2.1552 1.9202-2.1833 1.2552-0.0247 1.0992 0.36974 1.6496 0.78332l0.59409 0.59883c-0.48913-1.7991 0.0716-1.1523-1.6437-1.8481-0.89473-0.36252-0.49709-0.10002-1.102-0.46577zm8.1071 47.613 2.639 0.0313v-5.4481l-4.7889-0.0194 0.0215-40.127 4.7675 0.042v-6.4974h-2.9059c-1.7669 0.81995-6.8314 0.0867-9.1711 0.40846-3.2223 0.44281-3.005 3.3132-2.998 6.3799 0.0152 6.4095 0.009 12.826-0.0114 19.234-0.0957 32.079-1.1971 24.415 12.447 25.996"/>
      <path id="path3397" d="m-40.875 944.42 4.8998 0.13495 6.2647-0.13931 0.08294-31.91c-2.6766-0.28186-9.0394-0.24485-11.625 0.23953l0.37771 31.675z"/>
     </g>
     <path id="path3399" d="m100.42 766.1c2.4845-1.0088 1.239 1.1792 4.2628 1.1739 2.7206-0.004 2.3613-2.0875 4.1578-1.0857 0.96249 1.6168-0.42288 2.5147 0.81179 4.3989 1.0686 1.6317 1.7674 0.60642 2.9592 2.3915-1.1293 1.6877-1.7141 0.77687-2.8425 2.0822-1.2616 1.4592-0.39916 2.9241-0.84349 4.7062-2.4841 0.81027-0.58383-0.57948-3.4686-1.0724-3.622-0.6197-2.5551 1.6803-4.9165 1.0739-0.84045-1.6678 0.57453-2.498-0.74688-4.457-1.0496-1.5572-2.9532-0.94902-3.0171-2.3539-0.05011-1.0921 1.7684-1.2669 2.6388-2.244 1.4501-1.6276 0.0894-2.7379 1.0046-4.6136zm-8.355 21.395c13.559 10.495 28.272 2.1657 31.103-9.9905-2.4033-0.0539-4.1476-0.91789-4.1476-3.3965 0-2.6417 1.4909-3.3487 4.0578-3.3924 1.6443-0.001-1.4645-6.1221-1.7954-7.5426-1.619 0.13514-3.573 2.8246-5.9399 0.28299-0.56277-0.60357-1.0394-1.9971-0.71556-3.13 0.26098-0.91314 0.94484-1.2827 1.7528-2.8102-2.3634-1.2504-4.6441-3.1215-7.9192-3.3939 0 1.6437 0.27503 2.625-0.44546 3.7032-1.2223 1.8293-5.965 3.0528-5.965-2.9516 0-1.8954 0.10098-0.72904-0.37733-1.1299-2.4168 1.1606-11.749 2.1786-15.138 13.147-0.58536 1.8959-1.6281 6.2104-0.70057 8.4573 0 3.6435 4.0663 10.962 6.2299 12.147" stroke-width="2.4878"/>
    </g>
    <path id="path3401" d="m-17.964 923.06 6.2853-0.004 0.0028 6.3842-6.2051-0.001-0.08294-6.3783zm-7.3154 0.53107 1.7485-0.15279 3.8642 0.0214 0.01766 1.5-0.0042 4.1983-3.8754-0.004-1.7572-0.0985 0.0065-5.4646zm7.6421-7.8074 5.6541-0.004-0.14786 5.7133-5.4196-0.004-0.08921-1.4311 0.0028-4.2736zm-7.9746-7.7476 6.2863-0.0457-0.05068 6.3966-6.247-0.17367 0.01137-6.1772zm13.127 23.925 1.9341 0.0286 0.0097-16.406-0.29534-11.931c-5.1801 0.36955-15.01-0.30463-16.062-0.14368-0.3126 2.7499 0.3536 4.4253 0.36272 7.1197 0.01934 6.3799 0.11787 15.226-0.38416 21.256l14.435 0.0769z" stroke-width=".35106"/>
   </g>
   <path id="path3403" d="m37.377 802.77c5.4701-2.4299 8.228 5.2866 3.6596 7.5925-5.3619 2.7062-8.7655-5.3247-3.6596-7.5925zm5.703 90c1.259 6.8126-6.5966 8.1883-8.1731 2.3959l0.1099-1.883c0.89151-1.2779 1.6898-2.6106 3.6978-2.8689 2.5675-0.33025 3.5962 1.1331 4.3655 2.356zm-11.012 3.6807c-0.73929 1.4156-0.08503 4.4065 0.07307 6.1868 7.7074 0.14026 16.512-5.9604 20.535-8.9673l3.793-3.7384c3.268-3.2415 7.6901-8.9785 9.0906-13.395 1.876-2.7596 4.1115-10.844 4.889-15.142 2.8285-15.619 0.21353-33.44-9.7474-45.971-0.67153-0.84406-0.1695-0.6478-0.98565-0.96743-1.6572-2.3355-2.3167-3.1517-4.4575-4.8776-4.3666-3.5193-5.0581-4.5469-11.13-7.293l-6.9417-2.9135c-0.87841 0.38473-1.6613 0.0516-1.6936 0.0463-0.87328-0.11407-0.7241-0.18999-1.7018-0.22226-1.0589 3.4742-5.5514 7.4845-1.239 11.223 1.5856 1.3768 4.6388 2.5707 6.7414 4.1537 2.598 1.9567 2.6907 1.4977 2.9355 2.9854 1.8443 0.78559 2.6197 1.9669 3.8942 3.4402 0.78768 0.90858 1.0616 0.97369 1.8073 1.9552 0.59541 0.7818 1.1804 1.5532 1.6285 2.1892 12.404 16.926 9.5467 44.219-5.413 57.376-5.8898 5.1792-12.286 7.8467-12.079 13.931"/>
   <path id="path3405" d="m-38.991 850.17c2.0024 0.10325 12.869 0.42706 13.592-0.51437 2.1651 1.0302 0.27882-0.47622 1.0519 1.0561l0.03701-4.4623c-2.7449-0.81577-6.0656-0.25718-9.148-0.4466-1.8546 0.38036-4.4458 0.20707-5.9097-0.34981-4.0722-1.2886-7.0432-3.9754-7.181-9.1028-0.08123-3.0054-0.02738-5.2764 1.4146-6.913 1.5452-1.7536 2.5954-2.5508 5.7664-2.5202l2.7651-0.0716 0.05903-4.5786-2.8241-0.17045c-3.4364-0.32399-7.755 1.94-9.326 3.7813-2.7203 3.1883-2.7091 4.832-2.7463 10.463-0.0323 4.7426 1.2633 7.104 3.6748 9.5251 1.8783 1.8859 5.3109 4.4786 8.7742 4.3038" stroke="#000" stroke-width="1.2439"/>
   <path id="path3407" d="m125.69 838.26-0.12224-8.56m-0.52177 32.496c1.2352 0.29267 0.79737-1.4026 0.77212-2.8326-0.0228-1.2671-0.009-2.5261-0.0463-3.7915l0.0317-9.8054-0.004-7.166c2.2877 0 8.2889 0.9642 8.2889-4.903 0-5.8112-5.9388-4.9024-8.2889-4.9024l0.009-5.6698c-0.24276-1.1627 0.25491-0.74726-0.76453-1.0335l-4.7675-0.0419-0.0214 40.127 4.7889 0.0194z" stroke="#000" stroke-width="1.2439"/>
   <path id="path3409" d="m-33.458 845.8c3.0824 0.18942 6.403-0.36917 9.148 0.4466l-0.03701 4.4623c-1.0815 1.2774-2.5921 0.78939-4.4596 0.73226-1.5475-0.0469-3.0927-0.0888-4.6416-0.0974 1.4135 4.1798 5.9431 5.7886 9.401 4.7637 3.4428-1.0196 5.8215-4.2989 5.7503-8.0672-0.15962-8.5368-12.796-9.9271-15.161-2.2402"/>
  </g>
  <g fill-rule="evenodd">
   <path id="path3411" d="m-36.727 869.05c0 3.2136-0.49672 9.8195 0.27484 12.542 0.95243 0.60149 6.3153 0.10174 7.6024-0.46255 2.6798-1.1756 2.7789-2.3803 2.8015-5.9507 0.02145-3.3159-0.24219-4.969-2.8068-6.0134-1.8401-0.7501-6.381-0.91372-7.8719-0.11521"/>
   <path id="path3413" d="m-36.727 885.78v12.585c5.8279 0.97065 10.619 0.47944 10.693-6.5907 0.03644-3.481-0.25946-4.8261-2.9543-5.8968-1.9354-0.76927-6.1965-0.87214-7.7385-0.0974"/>
   <path id="path3415" d="m89.603 821.77c5.3695 0.15601 8.3212-0.55366 8.4051-6.1781 0.04461-2.9364 0.23612-4.2241-1.7115-5.5804-1.6991-1.1825-4.4274-1.2396-6.6936-0.75864v12.517z"/>
  </g>
  <g fill="none">
   <path id="path3417" d="m103.26 769.84c4.795-2.0854 6.5974 4.7066 3.0308 6.3051-3.0968 1.3871-5.9306-1.2343-4.9024-4.5141 0.4654-1.4833 0.80382-1.3262 1.8716-1.791zm-6.4879 3.1145c0.06491 1.4055 1.9664 0.79736 3.0171 2.3545 1.3214 1.959-0.09357 2.7901 0.74688 4.457 2.3613 0.60643 1.2945-1.6936 4.9165-1.0739 2.8848 0.49292 0.98451 1.8827 3.4686 1.0724 0.44433-1.7815-0.41813-3.247 0.84349-4.7062 1.1284-1.3053 1.7132-0.39442 2.8425-2.0822-1.1918-1.7851-1.8906-0.75978-2.9592-2.3915-1.2347-1.8842 0.1507-2.7821-0.81179-4.3989-1.7965-1.0018-1.4372 1.0809-4.1578 1.0857-3.0238 0.006-1.7783-2.1827-4.2628-1.1739-0.91523 1.8756 0.44547 2.986-1.0046 4.6136-0.87044 0.97768-2.6889 1.1519-2.6388 2.2435"/>
   <path id="path3419" d="m125.78 855.57c2.2258 0 7.953 0.81084 7.979-4.8986 0.0258-5.7203-5.2044-4.9068-7.9478-4.9068l-0.0311 9.8054z" stroke="#000" stroke-width="1.2439"/>
   <path id="path3421" d="m133.15 831.43c-1.5484-2.2311-4.3256-1.8642-7.5754-1.734l0.12224 8.56c2.8725 0.15393 5.1327 0.0436 6.4461-1.0411 0.96402-0.79775 1.6862-2.2769 1.4962-4.4133-0.0414-0.46654-0.16741-0.90821-0.48913-1.3715"/>
   <g stroke="#000" stroke-width="1.2439">
    <path id="path3423" d="m37.377 802.77c-5.1059 2.2678-1.7023 10.299 3.6596 7.5925 4.5684-2.3059 1.8105-10.022-3.6596-7.5925"/>
    <path id="path3425" d="m35.016 893.28-0.1099 1.883c1.5765 5.7924 9.4321 4.4167 8.1731-2.3959-0.76927-1.2229-1.798-2.6863-4.3655-2.356-2.0079 0.25833-2.8059 1.5909-3.6978 2.8689"/>
    <path id="path3427" d="m-17.881 929.44 6.2051 0.001-0.0028-6.3842-6.2853 0.004 0.08294 6.3784z"/>
    <path id="path3429" d="m103.26 769.84c-1.0678 0.46483-1.4062 0.30767-1.8716 1.791-1.0282 3.2798 1.8056 5.9012 4.9024 4.5141 3.5666-1.5985 1.7642-8.3904-3.0308-6.3051"/>
    <path id="path3431" d="m-25.624 914.21 6.247 0.17367 0.05068-6.3966-6.2863 0.0457-0.01137 6.1772z"/>
    <path id="path3433" d="m-25.286 929.06 1.7572 0.0985 3.8754 0.004 0.0042-4.1983-0.01766-1.5-3.8642-0.0214-1.7485 0.15278-0.0065 5.4646z"/>
    <path id="path3435" d="m-17.64 920.06 0.08921 1.4311 5.4196 0.004 0.14786-5.7133-5.6541 0.004-0.0028 4.2736z"/>
    <path id="path3437" d="m115.29 818.65c2.3099 0 4.1838 1.8734 4.1838 4.1836 0 2.3097-1.8739 4.1836-4.1838 4.1836-2.3101 0-4.1836-1.8739-4.1836-4.1836 0-2.3103 1.8736-4.1836 4.1836-4.1836"/>
   </g>
  </g>
 </g>
</svg>
